HIERARCHY
ROOT Hips
{
    OFFSET 0.000000 0.000000 0.000000
    CHANNELS 6 Xposition Yposition Zposition Zrotation Xrotation Yrotation
    JOINT Spine
    {
        OFFSET -0.000000 14.517291 0.000000
        CHANNELS 3 Zrotation Xrotation Yrotation
        JOINT Spine1
        {
            OFFSET -0.000000 37.558300 0.000000
            CHANNELS 3 Zrotation Xrotation Yrotation
            JOINT Neck
            {
                OFFSET -0.000000 37.404057 3.400369
                CHANNELS 3 Zrotation Xrotation Yrotation
                JOINT Head
                {
                    OFFSET -0.000000 24.785618 -3.540803
                    CHANNELS 3 Zrotation Xrotation Yrotation
                    End Site
                    {
                        OFFSET -0.000000 35.408028 0.000000
                    }
                }
            }
            JOINT LeftShoulder
            {
                OFFSET 6.992933 33.973492 -0.192664
                CHANNELS 3 Zrotation Xrotation Yrotation
                JOINT LeftArm
                {
                    OFFSET 21.527611 0.000000 0.000000
                    CHANNELS 3 Zrotation Xrotation Yrotation
                    JOINT LeftForeArm
                    {
                        OFFSET 56.353916 0.000000 0.000000
                        CHANNELS 3 Zrotation Xrotation Yrotation
                        JOINT LeftHand
                        {
                            OFFSET 47.774071 0.000000 0.000000
                            CHANNELS 3 Zrotation Xrotation Yrotation
                            End Site
                            {
                                OFFSET 26.556021 0.000000 0.000000
                            }
                        }
                    }
                }
            }
            JOINT RightShoulder
            {
                OFFSET -7.065357 33.973492 -0.192664
                CHANNELS 3 Zrotation Xrotation Yrotation
                JOINT RightArm
                {
                    OFFSET -21.527611 0.000000 0.000000
                    CHANNELS 3 Zrotation Xrotation Yrotation
                    JOINT RightForeArm
                    {
                        OFFSET -56.353916 0.000000 0.000000
                        CHANNELS 3 Zrotation Xrotation Yrotation
                        JOINT RightHand
                        {
                            OFFSET -47.774071 0.000000 0.000000
                            CHANNELS 3 Zrotation Xrotation Yrotation
                            End Site
                            {
                                OFFSET -26.556021 0.000000 0.000000
                            }
                        }
                    }
                }
            }
        }
    }
    JOINT LeftUpLeg
    {
        OFFSET 17.704014 0.000000 0.000000
        CHANNELS 3 Zrotation Xrotation Yrotation
        JOINT LeftLeg
        {
            OFFSET -0.000000 -81.181816 0.000000
            CHANNELS 3 Zrotation Xrotation Yrotation
            JOINT LeftFoot
            {
                OFFSET -0.000000 -62.821102 0.000000
                CHANNELS 3 Zrotation Xrotation Yrotation
                JOINT LeftToeBase
                {
                    OFFSET -0.000000 -11.507608 26.556021
                    CHANNELS 3 Zrotation Xrotation Yrotation
                    End Site
                    {
                        OFFSET -0.000000 0.000000 7.081605
                    }
                }
            }
        }
    }
    JOINT RightUpLeg
    {
        OFFSET -17.704014 0.000000 0.000000
        CHANNELS 3 Zrotation Xrotation Yrotation
        JOINT RightLeg
        {
            OFFSET -0.000000 -81.181816 0.000000
            CHANNELS 3 Zrotation Xrotation Yrotation
            JOINT RightFoot
            {
                OFFSET -0.000000 -62.821102 0.000000
                CHANNELS 3 Zrotation Xrotation Yrotation
                JOINT RightToeBase
                {
                    OFFSET -0.000000 -11.507608 26.556021
                    CHANNELS 3 Zrotation Xrotation Yrotation
                    End Site
                    {
                        OFFSET -0.000000 0.000000 7.081605
                    }
                }
            }
        }
    }
}
MOTION
Frames:    8
Frame Time:    0.008333
23.539921    157.045410    -34.119450    1.807347    -0.228546    -44.920994    -2.185830    -0.398358    -1.343871    4.062309    -1.204733    -0.405613    16.379543    -5.028364    17.919369    -8.252428    11.340526    15.143636    13.562734    -9.311958    -22.511988    -18.859112    -28.554075    -66.091148    48.212868    -57.623783    -29.625664    -29.091825    -40.137711    -48.167652    -5.357658    3.539388    1.354957    32.094528    10.195986    76.968040    6.493382    -0.650288    103.763870    9.219448    -6.992622    23.709976    17.297722    -18.906431    4.357823    -11.397905    17.883629    -3.588841    -8.855892    -0.049498    38.330818    0.000000    0.000000    0.000000    -15.080410    2.281428    -6.297254    5.862619    24.942892    -2.582576    5.957885    -19.984600    -17.093390    0.000000    0.000000    0.000000    
23.527584    157.038956    -34.125389    1.781174    -0.244388    -44.914661    -2.135080    -0.388458    -1.349778    4.020073    -1.210250    -0.407962    16.350897    -5.001844    17.904118    -8.196157    11.321260    15.138011    13.561756    -9.282041    -22.467653    -18.862556    -28.525059    -66.067116    48.351795    -57.679146    -29.637358    -29.170885    -40.149376    -48.166508    -5.359983    3.545440    1.359958    32.111519    10.201191    76.964172    6.473464    -0.684563    103.788124    9.213067    -7.004833    23.725880    17.304571    -18.879622    4.373089    -11.392090    17.891459    -3.603074    -8.853371    -0.054524    38.317753    0.000000    0.000000    0.000000    -15.067462    2.319294    -6.298553    5.860979    24.934759    -2.580834    5.955419    -19.996727    -17.096027    0.000000    0.000000    0.000000    
23.517078    157.030838    -34.131947    1.759835    -0.262163    -44.903595    -2.095644    -0.377643    -1.345538    3.982787    -1.221765    -0.406563    16.332607    -4.992986    17.890411    -8.135469    11.330587    15.131669    13.568339    -9.236730    -22.447504    -18.840702    -28.482239    -66.035797    48.580116    -57.737301    -29.543734    -29.254704    -40.159115    -48.253777    -5.363063    3.543119    1.348430    32.120079    10.213902    76.936562    6.470356    -0.723558    103.828255    9.238139    -7.036553    23.770029    17.313274    -18.860695    4.362240    -11.401917    17.906494    -3.612752    -8.851286    -0.067924    38.315140    0.000000    0.000000    0.000000    -15.066271    2.353266    -6.295348    5.874320    24.934631    -2.598978    5.943870    -20.006142    -17.072174    0.000000    0.000000    0.000000    
23.509808    157.021301    -34.138584    1.746094    -0.277550    -44.897758    -2.057752    -0.384794    -1.342027    3.949110    -1.212324    -0.406051    16.299330    -4.982378    17.877041    -8.076967    11.324425    15.127662    13.553280    -9.160842    -22.410118    -18.824724    -28.476393    -66.037758    48.724693    -57.813744    -29.500654    -29.303846    -40.211121    -48.335392    -5.379390    3.552446    1.341420    32.135902    10.196893    76.921295    6.432575    -0.741321    103.861610    9.220716    -7.017674    23.734371    17.315102    -18.845264    4.373353    -11.396844    17.917337    -3.637434    -8.850039    -0.073398    38.306686    0.000000    0.000000    0.000000    -15.071786    2.368951    -6.296392    5.889859    24.957691    -2.597547    5.932541    -20.032776    -17.079447    0.000000    0.000000    0.000000    
23.505209    157.009277    -34.143433    1.734143    -0.297032    -44.892574    -2.021683    -0.390913    -1.335930    3.907403    -1.195708    -0.405117    16.289820    -4.980381    17.877253    -8.033851    11.326369    15.131894    13.538202    -9.118574    -22.385132    -18.836380    -28.456850    -66.033821    48.821156    -57.867706    -29.502947    -29.277971    -40.264549    -48.372814    -5.383749    3.551023    1.321345    32.142750    10.181890    76.899841    6.441526    -0.752867    103.892731    9.231787    -7.039835    23.768169    17.309782    -18.829786    4.397736    -11.390651    17.930395    -3.643667    -8.842155    -0.082575    38.281906    0.000000    0.000000    0.000000    -15.085648    2.380789    -6.296937    5.908629    24.985943    -2.612899    5.916595    -20.056341    -17.061892    0.000000    0.000000    0.000000    
23.501698    156.997787    -34.148651    1.723192    -0.317660    -44.893143    -2.001813    -0.401243    -1.320879    3.893476    -1.175716    -0.400915    16.259464    -4.980368    17.864592    -7.978039    11.335236    15.127494    13.515289    -9.053734    -22.369513    -18.890266    -28.479664    -66.043724    48.795277    -57.906635    -29.628069    -29.148003    -40.347576    -48.291538    -5.404737    3.547289    1.301330    32.144863    10.162064    76.872040    6.434582    -0.756460    103.907814    9.225299    -7.038875    23.757181    17.304268    -18.812614    4.422541    -11.382688    17.946196    -3.650133    -8.839116    -0.091849    38.261333    0.000000    0.000000    0.000000    -15.102642    2.381780    -6.302415    5.921004    25.037979    -2.590192    5.913462    -20.082891    -17.072468    0.000000    0.000000    0.000000    
23.501577    156.983917    -34.153782    1.718483    -0.339430    -44.894676    -1.981209    -0.420561    -1.308050    3.872005    -1.142642    -0.397835    16.254110    -4.990591    17.858131    -7.958622    11.359933    15.122839    13.491511    -9.015752    -22.354736    -18.964314    -28.494558    -66.038406    48.691608    -57.951866    -29.817410    -29.067429    -40.417358    -48.206066    -5.427627    3.533623    1.277146    32.150578    10.144884    76.850838    6.447783    -0.751161    103.908188    9.244082    -7.046742    23.755434    17.290989    -18.795282    4.449671    -11.370835    17.952272    -3.663070    -8.824042    -0.095450    38.234539    0.000000    0.000000    0.000000    -15.127841    2.374799    -6.291299    5.947199    25.093044    -2.603137    5.909965    -20.115746    -17.061518    0.000000    0.000000    0.000000    
23.500214    156.970840    -34.158577    1.712309    -0.364241    -44.903576    -1.942738    -0.450058    -1.290888    3.800075    -1.091465    -0.394387    16.261190    -4.993484    17.846165    -7.905367    11.361549    15.110724    13.500533    -8.980306    -22.364283    -19.030287    -28.509462    -65.995255    48.710239    -57.928268    -29.880127    -29.120182    -40.333347    -48.216469    -5.409732    3.536799    1.266559    32.135380    10.111812    76.822578    6.467474    -0.765936    103.904961    9.288741    -7.074263    23.785732    17.281816    -18.775400    4.482558    -11.363926    17.969328    -3.682493    -8.825915    -0.117909    38.220726    0.000000    0.000000    0.000000    -15.155901    2.369163    -6.272943    5.974168    25.150810    -2.608186    5.897635    -20.146578    -17.052740    0.000000    0.000000    0.000000    
